<svg width="609" height="331" viewBox="0 0 609 331" fill="none" xmlns="http://www.w3.org/2000/svg">
<path d="M4.06296 110.328C4.06296 113.803 3.95604 117.064 3.87585 118.08C4.16988 118 4.5441 118 4.94505 118C5.18562 118 5.58657 118 5.80041 118.027C5.66676 117.118 5.58657 114.151 5.58657 110.328V103.111C5.58657 101.882 5.64003 99.9305 5.64003 99.1553C5.64003 99.0752 5.66676 99.0484 5.74695 99.0484H17.8824C17.9893 99.0484 18.0428 99.1019 18.0428 99.2088C18.0428 99.583 18.0695 102.042 18.0695 103.325V110.328C18.0695 113.857 17.9626 117.091 17.8824 118.08C18.0695 118 18.5239 118 18.9783 118C19.2723 118 19.5664 118 19.8069 118.027C19.6733 116.931 19.6198 113.884 19.6198 110.328V105.624C19.6198 101.802 19.7 98.8079 19.8069 97.8723C19.6198 97.9525 19.0318 97.9525 18.4704 97.9525H4.86486C4.65102 97.9525 4.0095 97.9525 3.82239 97.9258C4.0095 98.8613 4.06296 101.775 4.06296 105.624V110.328ZM27.1788 111.478C27.1788 114.472 27.0986 117.278 27.0184 118.053C27.2055 118.027 27.6599 118 27.9807 118C28.1945 118 28.542 118 28.836 118.027C28.7024 117.118 28.6757 114.418 28.6757 111.531V102.309C28.6757 101.909 28.6757 101.909 28.7558 101.882C28.943 101.802 29.7716 101.775 30.3329 101.775C31.5358 101.775 32.4713 101.962 33.193 102.363C34.3959 103.004 35.1176 104.234 35.1176 105.811C35.1176 108.511 33.0059 109.687 30.6269 109.767C30.7339 110.008 30.8675 110.462 30.8942 110.596C34.2355 110.596 36.6412 108.644 36.6412 105.517C36.6412 104.02 35.9462 102.871 35.3849 102.363C34.4761 101.508 33.2999 100.893 30.6269 100.893C29.3706 100.893 28.1411 100.973 27.6866 100.973C27.4995 100.973 27.1788 100.973 26.9649 100.946C27.0986 101.721 27.1788 104.234 27.1788 107.468V111.478ZM43.1128 100.893C42.9791 100.973 42.4178 100.973 42.1238 100.973C41.9367 100.973 41.6159 100.973 41.3219 100.946C41.5357 102.63 41.5357 113.616 41.5357 117.706C41.5357 118.321 41.6159 118.401 41.6961 118.401C41.803 118.401 42.0168 118.267 42.4178 117.759C44.476 115.594 53.3236 104.982 54.8205 103.486C54.8205 107.789 54.6869 115.915 54.5799 118.053C54.7671 118.027 55.0611 118 55.3551 118C55.6491 118 56.0234 118.027 56.3174 118.053C56.2372 116.69 56.1303 111.424 56.1303 107.255C56.1303 105.383 56.157 103.165 56.157 101.909C56.157 100.706 56.1303 100.572 55.9966 100.572C55.8095 100.572 55.5155 100.946 54.3661 102.149C52.6821 103.94 45.1175 113.108 42.8455 115.594C42.8455 110.542 43.0059 102.63 43.1128 100.893ZM63.1208 116.904C63.0941 116.904 63.0673 116.877 63.0941 116.797C64.5108 112.734 66.3284 107.869 67.6916 104.074C67.7718 103.806 67.852 103.673 67.9322 103.673C67.9589 103.673 68.0124 103.806 68.1193 104.074C69.2954 107.041 72.5832 115.274 73.2247 116.77C73.2515 116.851 73.2247 116.904 73.1446 116.904C72.9574 116.904 63.2277 117.011 63.1208 116.904ZM60.1538 120.219C60.3409 119.39 60.5013 118.642 60.6884 118.347C60.822 118.134 60.9022 118.107 61.1161 118.08C61.7576 118 62.8802 118 64.0296 118H73.6792C74.8285 118 75.5503 118.027 75.8977 118.107C76.0314 118.134 76.165 118.241 76.2452 118.374C76.566 118.882 76.6729 119.684 76.8066 120.326L77.5015 120.192C77.5015 118.481 77.6887 117.278 77.7956 116.77C77.1541 116.851 75.9512 116.877 75.1226 116.877C74.9889 116.877 74.9087 116.824 74.882 116.717C72.5832 111.478 70.7389 106.64 68.5203 101.374C68.3332 100.92 68.1995 100.706 68.1193 100.706C68.0124 100.706 67.9589 100.839 67.6382 101.454L61.7576 116.717C61.6774 116.851 61.6239 116.904 61.5705 116.904C60.4745 116.904 59.6994 116.824 59.3786 116.744C59.4588 117.519 59.4053 119.069 59.4053 120.326L60.1538 120.219ZM82.3439 109.313C82.3439 109.286 82.3706 109.233 82.424 109.206C82.6112 109.206 83.2259 109.179 83.6536 109.179C85.2307 109.179 86.5405 109.446 87.5027 110.088C88.7591 110.917 89.1867 111.932 89.1867 113.429C89.1867 116.049 87.0751 117.225 84.9901 117.225C83.7071 117.225 82.825 117.038 82.4775 116.797C82.3973 116.717 82.3439 115.995 82.3439 111.531V109.313ZM82.424 102.042C82.424 101.989 82.4508 101.962 82.531 101.962C84.2417 101.962 85.8188 101.935 86.7008 102.015C88.3046 102.096 88.9194 102.203 89.2669 102.39C89.2937 101.882 89.3738 101.187 89.4808 100.786C89.0798 100.92 87.3691 100.973 86.0861 100.973H81.4885C81.2747 100.973 80.7935 100.973 80.6599 100.946C80.6866 101.053 80.6866 101.294 80.7668 101.695C80.847 102.871 80.847 105.116 80.847 107.575V111.478C80.847 115.781 80.7935 116.958 80.7133 118.027C80.847 118 81.1143 118 81.4618 118C82.1033 118 82.7448 118.187 84.8297 118.187C88.6521 118.187 90.7638 115.915 90.7638 113.269C90.7638 111.478 90.0421 110.034 88.3314 109.099C87.3691 108.538 85.8722 108.217 83.9477 108.217H82.424C82.3706 108.217 82.3439 108.19 82.3439 108.11C82.3439 105.651 82.3439 103.192 82.424 102.042ZM104.1 111.505C104.127 111.505 104.18 111.531 104.207 111.585C105.062 113.643 106.505 116.984 106.853 118.053C107.067 118.027 107.575 118 108.002 118C108.243 118 108.564 118.027 108.858 118.027C108.296 117.171 106.987 114.151 105.917 111.692C103.832 107.041 101.587 101.909 101.373 101.401C101.079 100.732 100.999 100.572 100.892 100.572C100.785 100.572 100.705 100.866 100.411 101.427L95.8135 112.895C94.9848 114.926 94.2097 116.851 93.5949 118.053C93.782 118.027 94.2631 118 94.6106 118C95.0116 118 95.1185 118 95.3323 118.027C95.5996 116.984 96.8559 113.696 97.6311 111.585C97.6311 111.531 97.6578 111.505 97.7113 111.505H104.1ZM98.0855 110.489C98.0053 110.489 98.0053 110.462 98.0321 110.409L100.759 103.272L103.779 110.409C103.806 110.462 103.779 110.489 103.726 110.489H98.0855ZM114.323 100.893C114.19 100.973 113.628 100.973 113.334 100.973C113.147 100.973 112.826 100.973 112.532 100.946C112.746 102.63 112.746 113.616 112.746 117.706C112.746 118.321 112.826 118.401 112.906 118.401C113.013 118.401 113.227 118.267 113.628 117.759C115.686 115.594 124.534 104.982 126.031 103.486C126.031 107.789 125.897 115.915 125.79 118.053C125.977 118.027 126.271 118 126.566 118C126.86 118 127.234 118.027 127.528 118.053C127.448 116.69 127.341 111.424 127.341 107.255C127.341 105.383 127.367 103.165 127.367 101.909C127.367 100.706 127.341 100.572 127.207 100.572C127.02 100.572 126.726 100.946 125.576 102.149C123.893 103.94 116.328 113.108 114.056 115.594C114.056 110.542 114.216 102.63 114.323 100.893ZM115.9 97.2308C116.435 98.2198 117.958 98.995 119.803 98.995C121.326 98.995 123.117 98.4069 124.187 96.8298L124.32 96.0012L124.267 95.9745C123.278 97.1506 122.021 97.9258 119.99 97.9258C117.771 97.9258 116.488 96.6962 116.194 95.8408L116.114 95.8676C116.114 96.1883 115.98 96.91 115.9 97.2308Z" fill="#72927A"/>
<path d="M34.1903 134.294C34.1903 134.267 34.217 134.213 34.2705 134.187C34.4041 134.106 35.0189 134.053 35.7941 134.053C38.2532 134.053 39.563 135.363 39.563 137.421C39.563 138.517 39.0017 139.693 38.0127 140.335C37.7186 140.522 37.6117 140.522 37.2108 140.522C36.7831 140.522 34.7249 140.468 34.2705 140.468C34.217 140.468 34.1903 140.441 34.1903 140.388V134.294ZM41.0332 145.6C41.0332 148.273 38.9749 149.449 36.8633 149.449C35.5 149.449 34.5912 149.236 34.2972 148.995C34.2437 148.942 34.1903 148.193 34.1903 143.702V141.591C34.1903 141.564 34.217 141.511 34.2705 141.484C34.4843 141.484 35.8208 141.43 36.5425 141.511C37.6117 141.591 38.5473 141.778 39.2957 142.313C40.6857 143.275 41.0332 144.451 41.0332 145.6ZM32.7201 143.702C32.7201 146.696 32.6399 149.396 32.5597 150.278C32.8805 150.251 33.3616 150.225 33.6557 150.251C34.2705 150.278 35.1526 150.412 36.7564 150.412C40.7659 150.412 42.6102 147.926 42.6102 145.36C42.6102 142.687 40.6322 141.297 38.8146 140.789C39.7501 140.228 41.0332 139.105 41.0332 137.1C41.0332 135.416 40.0174 133.117 36.2485 133.117C34.8853 133.117 34.0566 133.198 33.3349 133.198C33.0943 133.198 32.7736 133.198 32.4528 133.171C32.6399 133.946 32.7201 136.459 32.7201 139.693V143.702ZM57.7912 141.35C59.9296 143.702 62.7897 146.883 64.5539 148.648C65.8369 149.984 66.6923 150.332 67.6813 150.332C68.1892 150.332 68.7238 150.278 68.9109 150.144C68.5099 149.957 67.6278 149.637 65.5696 147.578C64.3668 146.375 60.8919 142.82 59.395 141.11C59.8761 140.629 64.447 136.191 64.8746 135.657C66.719 133.812 67.414 133.358 67.708 133.117C67.4675 133.198 66.8527 133.198 66.2379 133.198C66.024 133.198 65.73 133.198 65.4894 133.171C65.3825 133.385 64.6608 134.267 63.057 135.978C61.7205 137.314 59.5554 139.64 58.4327 140.709C58.2456 140.896 57.9783 141.11 57.7912 141.243V141.35ZM57.3902 139.666C57.3902 136.539 57.4704 133.919 57.5506 133.117C57.4437 133.198 56.8289 133.198 56.5082 133.198C56.2943 133.198 55.9201 133.198 55.6795 133.171C55.8132 133.679 55.8934 136.539 55.8934 139.746V143.809C55.8666 147.872 55.8132 149.77 55.733 150.305C56.0003 150.251 56.3478 150.225 56.7755 150.225C57.016 150.225 57.3902 150.225 57.5774 150.251C57.4437 149.69 57.3902 146.589 57.3902 143.702V139.666ZM55.4924 141.243C55.3588 141.136 55.1182 140.949 54.7974 140.602C53.5144 139.319 51.3493 137.1 50.2801 135.978C48.6763 134.267 47.9546 133.331 47.8476 133.117C47.6338 133.198 47.019 133.198 46.5646 133.198C46.2438 133.198 45.8963 133.198 45.6023 133.171C45.8963 133.385 46.5913 133.839 48.4357 135.683C48.9436 136.191 53.5144 140.682 53.9421 141.217C52.4452 142.847 48.9703 146.375 47.7407 147.552C45.629 149.663 44.8004 150.037 44.4797 150.171C44.6668 150.278 45.1746 150.305 45.629 150.305C46.6982 150.305 47.3932 149.931 48.6763 148.648C50.4672 146.91 53.354 143.783 55.4924 141.35V141.243ZM71.6392 143.702C71.6392 146.83 71.559 149.476 71.4788 150.251C71.7194 150.225 72.1471 150.225 72.655 150.225C73.3767 150.225 75.0874 150.358 78.4286 150.358C79.284 150.358 79.4711 150.332 79.5513 150.305C79.6315 149.904 79.7651 149.289 79.9522 148.888C79.3642 149.182 78.4554 149.316 76.1031 149.316C75.0607 149.316 74.2855 149.236 73.7776 149.209C73.5638 149.182 73.4034 149.155 73.2697 149.075C73.1896 148.995 73.1361 148.3 73.1361 143.596V141.751C73.1361 141.698 73.1628 141.671 73.1896 141.671C73.537 141.671 76.4773 141.671 77.306 141.751C78.1881 141.831 78.5088 141.912 78.8029 142.018C78.8029 141.671 78.883 140.869 78.9632 140.522C78.7761 140.602 78.1881 140.629 77.0387 140.655C76.3972 140.655 73.4034 140.682 73.1896 140.682C73.1628 140.682 73.1361 140.629 73.1361 140.548V134.267C73.1361 134.213 73.1628 134.187 73.2163 134.187C75.4883 134.187 76.8248 134.24 77.4931 134.267C78.5623 134.347 78.9365 134.454 79.2305 134.588C79.2305 134.053 79.284 133.385 79.3642 133.091C78.9365 133.171 78.0544 133.198 77.6802 133.198H72.5748C72.1738 133.198 71.6659 133.198 71.4254 133.171C71.559 133.786 71.6392 136.031 71.6392 139.693V143.702ZM89.4867 149.877C89.9411 150.118 91.4113 150.599 93.3626 150.599C97.3186 150.599 99.7243 148.38 99.7243 145.36C99.7243 142.553 97.4522 141.11 95.6881 140.762C95.6346 140.735 95.6346 140.709 95.6881 140.682C96.9978 140.174 98.5214 139.105 98.5214 136.806C98.5214 135.256 97.479 132.797 93.7902 132.797C91.8657 132.797 90.743 133.278 90.1015 133.411C90.1817 133.652 90.1817 134.534 90.1817 134.989C90.5826 134.481 91.6251 133.839 93.4427 133.839C96.089 133.839 96.9444 135.683 96.9444 137.047C96.9444 139.319 95.3673 140.441 93.3626 140.441C93.0418 140.441 92.5607 140.415 92.3735 140.388C92.4003 140.629 92.3201 141.35 92.2399 141.537C92.5874 141.457 93.0953 141.43 93.416 141.43C95.9019 141.43 98.1205 142.713 98.1205 145.6C98.1205 148.38 95.8752 149.556 93.5229 149.556C91.4647 149.556 90.1282 148.728 89.6204 148.166C89.6204 148.781 89.5669 149.583 89.4867 149.877ZM112.903 143.729C112.93 143.729 112.983 143.756 113.01 143.809C113.865 145.868 115.309 149.209 115.656 150.278C115.87 150.251 116.378 150.225 116.805 150.225C117.046 150.225 117.367 150.251 117.661 150.251C117.099 149.396 115.79 146.375 114.72 143.916C112.636 139.265 110.39 134.133 110.176 133.625C109.882 132.957 109.802 132.797 109.695 132.797C109.588 132.797 109.508 133.091 109.214 133.652L104.617 145.119C103.788 147.151 103.013 149.075 102.398 150.278C102.585 150.251 103.066 150.225 103.414 150.225C103.815 150.225 103.922 150.225 104.135 150.251C104.403 149.209 105.659 145.921 106.434 143.809C106.434 143.756 106.461 143.729 106.514 143.729H112.903ZM106.889 142.713C106.808 142.713 106.808 142.687 106.835 142.633L109.562 135.496L112.582 142.633C112.609 142.687 112.582 142.713 112.529 142.713H106.889ZM121.445 143.702C121.445 146.696 121.365 149.503 121.284 150.278C121.471 150.251 121.926 150.225 122.247 150.225C122.46 150.225 122.808 150.225 123.102 150.251C122.968 149.343 122.942 146.643 122.942 143.756V134.534C122.942 134.133 122.942 134.133 123.022 134.106C123.209 134.026 124.038 133.999 124.599 133.999C125.802 133.999 126.737 134.187 127.459 134.588C128.662 135.229 129.384 136.459 129.384 138.036C129.384 140.735 127.272 141.912 124.893 141.992C125 142.232 125.133 142.687 125.16 142.82C128.501 142.82 130.907 140.869 130.907 137.742C130.907 136.245 130.212 135.095 129.651 134.588C128.742 133.732 127.566 133.117 124.893 133.117C123.637 133.117 122.407 133.198 121.953 133.198C121.765 133.198 121.445 133.198 121.231 133.171C121.365 133.946 121.445 136.459 121.445 139.693V143.702ZM142.191 143.729C142.218 143.729 142.271 143.756 142.298 143.809C143.153 145.868 144.597 149.209 144.944 150.278C145.158 150.251 145.666 150.225 146.094 150.225C146.334 150.225 146.655 150.251 146.949 150.251C146.388 149.396 145.078 146.375 144.009 143.916C141.924 139.265 139.678 134.133 139.464 133.625C139.17 132.957 139.09 132.797 138.983 132.797C138.876 132.797 138.796 133.091 138.502 133.652L133.905 145.119C133.076 147.151 132.301 149.075 131.686 150.278C131.873 150.251 132.354 150.225 132.702 150.225C133.103 150.225 133.21 150.225 133.424 150.251C133.691 149.209 134.947 145.921 135.722 143.809C135.722 143.756 135.749 143.729 135.802 143.729H142.191ZM136.177 142.713C136.097 142.713 136.097 142.687 136.123 142.633L138.85 135.496L141.87 142.633C141.897 142.687 141.87 142.713 141.817 142.713H136.177ZM149.681 149.877C150.136 150.118 151.606 150.599 153.557 150.599C157.513 150.599 159.919 148.38 159.919 145.36C159.919 142.553 157.647 141.11 155.883 140.762C155.829 140.735 155.829 140.709 155.883 140.682C157.193 140.174 158.716 139.105 158.716 136.806C158.716 135.256 157.674 132.797 153.985 132.797C152.06 132.797 150.938 133.278 150.296 133.411C150.376 133.652 150.376 134.534 150.376 134.989C150.777 134.481 151.82 133.839 153.637 133.839C156.284 133.839 157.139 135.683 157.139 137.047C157.139 139.319 155.562 140.441 153.557 140.441C153.237 140.441 152.755 140.415 152.568 140.388C152.595 140.629 152.515 141.35 152.435 141.537C152.782 141.457 153.29 141.43 153.611 141.43C156.097 141.43 158.315 142.713 158.315 145.6C158.315 148.38 156.07 149.556 153.718 149.556C151.659 149.556 150.323 148.728 149.815 148.166C149.815 148.781 149.762 149.583 149.681 149.877Z" fill="#72927A"/>
<path d="M152.772 126.439L163.534 110.473C174.357 98.4151 188.586 81.3333 208.513 92.7279C225.596 104.112 225.596 124.038 239.836 138.276C254.075 152.514 274.002 161.045 293.919 158.202C365.085 143.963 430.584 121.194 501.177 106.022" stroke="#72927A" stroke-width="0.5" stroke-miterlimit="10"/>
<path d="M122.887 154.926C119.932 162.713 115.681 170.108 113.672 178.227C121.318 171.241 128.237 163.498 134.322 155.117" stroke="#72927A" stroke-width="0.5" stroke-miterlimit="10"/>
<path d="M167.845 330.226C157.143 272.821 179.904 216.32 200.283 163.788C210.242 138.085 221.386 111.618 226.491 84.4079C230.641 62.0307 219.688 39.6433 193.329 46.878C167.413 53.972 151.948 87.4023 141.075 109.307L132.925 127.143" stroke="#72927A" stroke-width="0.5" stroke-miterlimit="10"/>
<path opacity="0.5" d="M501.177 172.349C536.607 172.349 565.329 143.629 565.329 108.202C565.329 72.7741 536.607 44.0542 501.177 44.0542C465.747 44.0542 437.025 72.7741 437.025 108.202C437.025 143.629 465.747 172.349 501.177 172.349Z" fill="#72927A"/>
<path d="M501.177 215.405C560.388 215.405 608.389 167.409 608.389 108.202C608.389 48.9947 560.388 0.998047 501.177 0.998047C441.966 0.998047 393.965 48.9947 393.965 108.202C393.965 167.409 441.966 215.405 501.177 215.405Z" stroke="#DCE0D4" stroke-width="0.5" stroke-miterlimit="10"/>
</svg>
