<svg width="380" height="216" viewBox="0 0 380 216" fill="none" xmlns="http://www.w3.org/2000/svg">
<path opacity="0.5" d="M271.838 172.403C307.268 172.403 335.99 143.683 335.99 108.255C335.99 72.8276 307.268 44.1079 271.838 44.1079C236.408 44.1079 207.686 72.8276 207.686 108.255C207.686 143.683 236.408 172.403 271.838 172.403Z" fill="#F7F7F2"/>
<path d="M271.838 215.449C217.102 215.449 169.269 171.147 164.958 116.605" stroke="#F7F7F2" stroke-width="0.5" stroke-miterlimit="10"/>
<path d="M379.05 108.255C379.047 136.686 367.75 163.951 347.645 184.053C327.539 204.156 300.271 215.449 271.838 215.449" stroke="#F7F7F2" stroke-width="0.5" stroke-miterlimit="10"/>
<path d="M271.838 1.05151C300.272 1.05151 327.542 12.3462 347.648 32.4508C367.754 52.5554 379.05 79.823 379.05 108.255" stroke="#F7F7F2" stroke-width="0.5" stroke-miterlimit="10"/>
<path d="M166.244 94.3687C173.077 42.48 220.177 1.05151 272.551 1.05151" stroke="#F7F7F2" stroke-width="0.5" stroke-miterlimit="10"/>
<path d="M63.063 106.328C63.063 109.803 62.956 113.064 62.8759 114.08C63.1699 114 63.5441 114 63.945 114C64.1856 114 64.5866 114 64.8004 114.027C64.6668 113.118 64.5866 110.151 64.5866 106.328V99.1114C64.5866 97.8818 64.64 95.9305 64.64 95.1553C64.64 95.0752 64.6668 95.0484 64.7469 95.0484H76.8824C76.9893 95.0484 77.0428 95.1019 77.0428 95.2088C77.0428 95.583 77.0695 98.0422 77.0695 99.3252V106.328C77.0695 109.857 76.9626 113.091 76.8824 114.08C77.0695 114 77.5239 114 77.9783 114C78.2723 114 78.5664 114 78.8069 114.027C78.6733 112.931 78.6198 109.884 78.6198 106.328V101.624C78.6198 97.8016 78.7 94.8079 78.8069 93.8723C78.6198 93.9525 78.0318 93.9525 77.4704 93.9525H63.8649C63.651 93.9525 63.0095 93.9525 62.8224 93.9258C63.0095 94.8613 63.063 97.7749 63.063 101.624V106.328ZM86.1788 107.478C86.1788 110.472 86.0986 113.278 86.0184 114.053C86.2055 114.027 86.6599 114 86.9807 114C87.1945 114 87.542 114 87.836 114.027C87.7024 113.118 87.6757 110.418 87.6757 107.531V98.3095C87.6757 97.9085 87.6757 97.9085 87.7558 97.8818C87.943 97.8016 88.7716 97.7749 89.3329 97.7749C90.5358 97.7749 91.4713 97.962 92.193 98.3629C93.3959 99.0045 94.1176 100.234 94.1176 101.811C94.1176 104.511 92.0059 105.687 89.6269 105.767C89.7339 106.008 89.8675 106.462 89.8942 106.596C93.2355 106.596 95.6412 104.644 95.6412 101.517C95.6412 100.02 94.9462 98.8708 94.3849 98.3629C93.4761 97.5076 92.2999 96.8928 89.6269 96.8928C88.3706 96.8928 87.1411 96.973 86.6866 96.973C86.4995 96.973 86.1788 96.973 85.9649 96.9463C86.0986 97.7214 86.1788 100.234 86.1788 103.468V107.478ZM102.113 96.8928C101.979 96.973 101.418 96.973 101.124 96.973C100.937 96.973 100.616 96.973 100.322 96.9463C100.536 98.6302 100.536 109.616 100.536 113.706C100.536 114.321 100.616 114.401 100.696 114.401C100.803 114.401 101.017 114.267 101.418 113.759C103.476 111.594 112.324 100.982 113.821 99.4856C113.821 103.789 113.687 111.915 113.58 114.053C113.767 114.027 114.061 114 114.355 114C114.649 114 115.023 114.027 115.317 114.053C115.237 112.69 115.13 107.424 115.13 103.255C115.13 101.383 115.157 99.1649 115.157 97.9085C115.157 96.7057 115.13 96.572 114.997 96.572C114.81 96.572 114.515 96.9463 113.366 98.1491C111.682 99.94 104.118 109.108 101.845 111.594C101.845 106.542 102.006 98.6302 102.113 96.8928ZM122.121 112.904C122.094 112.904 122.067 112.877 122.094 112.797C123.511 108.734 125.328 103.869 126.692 100.074C126.772 99.8064 126.852 99.6727 126.932 99.6727C126.959 99.6727 127.012 99.8064 127.119 100.074C128.295 103.041 131.583 111.274 132.225 112.77C132.251 112.851 132.225 112.904 132.145 112.904C131.957 112.904 122.228 113.011 122.121 112.904ZM119.154 116.219C119.341 115.39 119.501 114.642 119.688 114.347C119.822 114.134 119.902 114.107 120.116 114.08C120.758 114 121.88 114 123.03 114H132.679C133.829 114 134.55 114.027 134.898 114.107C135.031 114.134 135.165 114.241 135.245 114.374C135.566 114.882 135.673 115.684 135.807 116.326L136.502 116.192C136.502 114.481 136.689 113.278 136.796 112.77C136.154 112.851 134.951 112.877 134.123 112.877C133.989 112.877 133.909 112.824 133.882 112.717C131.583 107.478 129.739 102.64 127.52 97.3739C127.333 96.9195 127.2 96.7057 127.119 96.7057C127.012 96.7057 126.959 96.8393 126.638 97.4541L120.758 112.717C120.677 112.851 120.624 112.904 120.57 112.904C119.475 112.904 118.699 112.824 118.379 112.744C118.459 113.519 118.405 115.069 118.405 116.326L119.154 116.219ZM141.344 105.313C141.344 105.286 141.371 105.233 141.424 105.206C141.611 105.206 142.226 105.179 142.654 105.179C144.231 105.179 145.54 105.446 146.503 106.088C147.759 106.917 148.187 107.932 148.187 109.429C148.187 112.049 146.075 113.225 143.99 113.225C142.707 113.225 141.825 113.038 141.478 112.797C141.397 112.717 141.344 111.995 141.344 107.531V105.313ZM141.424 98.0422C141.424 97.9887 141.451 97.962 141.531 97.962C143.242 97.962 144.819 97.9353 145.701 98.0155C147.305 98.0956 147.919 98.2026 148.267 98.3897C148.294 97.8818 148.374 97.1868 148.481 96.7859C148.08 96.9195 146.369 96.973 145.086 96.973H140.488C140.275 96.973 139.794 96.973 139.66 96.9463C139.687 97.0532 139.687 97.2938 139.767 97.6947C139.847 98.8708 139.847 101.116 139.847 103.575V107.478C139.847 111.781 139.794 112.958 139.713 114.027C139.847 114 140.114 114 140.462 114C141.103 114 141.745 114.187 143.83 114.187C147.652 114.187 149.764 111.915 149.764 109.269C149.764 107.478 149.042 106.034 147.331 105.099C146.369 104.538 144.872 104.217 142.948 104.217H141.424C141.371 104.217 141.344 104.19 141.344 104.11C141.344 101.651 141.344 99.1916 141.424 98.0422ZM163.1 107.505C163.127 107.505 163.18 107.531 163.207 107.585C164.062 109.643 165.505 112.984 165.853 114.053C166.067 114.027 166.575 114 167.002 114C167.243 114 167.564 114.027 167.858 114.027C167.296 113.171 165.987 110.151 164.917 107.692C162.832 103.041 160.587 97.9085 160.373 97.4007C160.079 96.7324 159.999 96.572 159.892 96.572C159.785 96.572 159.705 96.8661 159.411 97.4274L154.813 108.895C153.985 110.926 153.21 112.851 152.595 114.053C152.782 114.027 153.263 114 153.611 114C154.012 114 154.118 114 154.332 114.027C154.6 112.984 155.856 109.696 156.631 107.585C156.631 107.531 156.658 107.505 156.711 107.505H163.1ZM157.086 106.489C157.005 106.489 157.005 106.462 157.032 106.409L159.759 99.2718L162.779 106.409C162.806 106.462 162.779 106.489 162.726 106.489H157.086ZM166.629 98.3362C167.191 98.1491 168.153 98.0422 169.757 98.0155C171.334 98.0155 171.895 97.9887 173.071 97.9887V107.478C173.071 110.445 172.964 113.385 172.884 114.053C173.098 114.027 173.606 114 174.007 114C174.194 114 174.515 114 174.728 114.027C174.648 113.278 174.568 110.338 174.568 107.344V97.9887C176.279 97.9887 177.348 97.9887 178.39 98.0689C180.021 98.1491 180.609 98.2293 180.956 98.4431C180.983 97.9353 181.063 97.1868 181.17 96.7859C180.769 96.9195 179.059 96.973 177.776 96.973H170.238C168.286 96.973 167.458 96.8928 166.95 96.7859C166.95 97.1868 166.709 98.0422 166.629 98.3362ZM186.505 96.8928C186.372 96.973 185.81 96.973 185.516 96.973C185.329 96.973 185.009 96.973 184.715 96.9463C184.928 98.6302 184.928 109.616 184.928 113.706C184.928 114.321 185.009 114.401 185.089 114.401C185.196 114.401 185.41 114.267 185.81 113.759C187.869 111.594 196.716 100.982 198.213 99.4856C198.213 103.789 198.08 111.915 197.973 114.053C198.16 114.027 198.454 114 198.748 114C199.042 114 199.416 114.027 199.71 114.053C199.63 112.69 199.523 107.424 199.523 103.255C199.523 101.383 199.55 99.1649 199.55 97.9085C199.55 96.7057 199.523 96.572 199.389 96.572C199.202 96.572 198.908 96.9463 197.759 98.1491C196.075 99.94 188.51 109.108 186.238 111.594C186.238 106.542 186.399 98.6302 186.505 96.8928Z" fill="#F7F7F2"/>
<path d="M5.7108 124.057C5.7108 124.03 5.73755 123.977 5.79105 123.95C5.9248 123.87 6.54005 123.816 7.3158 123.816C9.7768 123.816 11.0875 125.127 11.0875 127.187C11.0875 128.283 10.5258 129.46 9.53605 130.102C9.2418 130.29 9.1348 130.29 8.73355 130.29C8.30555 130.29 6.2458 130.236 5.79105 130.236C5.73755 130.236 5.7108 130.209 5.7108 130.156V124.057ZM12.5588 135.372C12.5588 138.047 10.499 139.224 8.3858 139.224C7.02155 139.224 6.11205 139.01 5.8178 138.769C5.7643 138.716 5.7108 137.967 5.7108 133.473V131.36C5.7108 131.333 5.73755 131.279 5.79105 131.253C6.00505 131.253 7.34255 131.199 8.0648 131.279C9.1348 131.36 10.071 131.547 10.82 132.082C12.211 133.045 12.5588 134.222 12.5588 135.372ZM4.23955 133.473C4.23955 136.469 4.1593 139.171 4.07905 140.054C4.40005 140.027 4.88155 140 5.1758 140.027C5.79105 140.054 6.6738 140.187 8.2788 140.187C12.2913 140.187 14.137 137.699 14.137 135.131C14.137 132.456 12.1575 131.065 10.3385 130.557C11.2748 129.995 12.5588 128.872 12.5588 126.866C12.5588 125.18 11.5423 122.88 7.77055 122.88C6.4063 122.88 5.57705 122.96 4.8548 122.96C4.61405 122.96 4.29305 122.96 3.97205 122.933C4.1593 123.709 4.23955 126.224 4.23955 129.46V133.473ZM29.3294 131.119C31.4694 133.473 34.3316 136.656 36.0971 138.422C37.3811 139.759 38.2371 140.107 39.2269 140.107C39.7351 140.107 40.2701 140.054 40.4574 139.92C40.0561 139.732 39.1734 139.411 37.1136 137.352C35.9099 136.148 32.4324 132.59 30.9344 130.878C31.4159 130.397 35.9901 125.956 36.4181 125.421C38.2639 123.575 38.9594 123.121 39.2536 122.88C39.0129 122.96 38.3976 122.96 37.7824 122.96C37.5684 122.96 37.2741 122.96 37.0334 122.933C36.9264 123.147 36.2041 124.03 34.5991 125.742C33.2616 127.08 31.0949 129.407 29.9714 130.477C29.7841 130.664 29.5166 130.878 29.3294 131.012V131.119ZM28.9281 129.434C28.9281 126.304 29.0084 123.682 29.0886 122.88C28.9816 122.96 28.3664 122.96 28.0454 122.96C27.8314 122.96 27.4569 122.96 27.2161 122.933C27.3499 123.442 27.4301 126.304 27.4301 129.514V133.58C27.4034 137.646 27.3499 139.545 27.2696 140.08C27.5371 140.027 27.8849 140 28.3129 140C28.5536 140 28.9281 140 29.1154 140.027C28.9816 139.465 28.9281 136.362 28.9281 133.473V129.434ZM27.0289 131.012C26.8951 130.905 26.6544 130.718 26.3334 130.37C25.0494 129.086 22.8826 126.866 21.8126 125.742C20.2076 124.03 19.4854 123.094 19.3784 122.88C19.1644 122.96 18.5491 122.96 18.0944 122.96C17.7734 122.96 17.4256 122.96 17.1314 122.933C17.4256 123.147 18.1211 123.602 19.9669 125.448C20.4751 125.956 25.0494 130.45 25.4774 130.985C23.9794 132.617 20.5019 136.148 19.2714 137.325C17.1581 139.438 16.3289 139.813 16.0079 139.946C16.1951 140.054 16.7034 140.08 17.1581 140.08C18.2281 140.08 18.9236 139.706 20.2076 138.422C21.9999 136.683 24.8889 133.553 27.0289 131.119V131.012ZM43.1878 133.473C43.1878 136.603 43.1075 139.251 43.0273 140.027C43.268 140 43.696 140 44.2043 140C44.9265 140 46.6385 140.134 49.9823 140.134C50.8383 140.134 51.0255 140.107 51.1058 140.08C51.186 139.679 51.3198 139.064 51.507 138.662C50.9185 138.957 50.009 139.09 47.655 139.09C46.6118 139.09 45.836 139.01 45.3278 138.983C45.1138 138.957 44.9533 138.93 44.8195 138.85C44.7393 138.769 44.6858 138.074 44.6858 133.366V131.52C44.6858 131.467 44.7125 131.44 44.7393 131.44C45.087 131.44 48.0295 131.44 48.8588 131.52C49.7415 131.6 50.0625 131.681 50.3568 131.788C50.3568 131.44 50.437 130.637 50.5173 130.29C50.33 130.37 49.7415 130.397 48.5913 130.423C47.9493 130.423 44.9533 130.45 44.7393 130.45C44.7125 130.45 44.6858 130.397 44.6858 130.316V124.03C44.6858 123.977 44.7125 123.95 44.766 123.95C47.0398 123.95 48.3773 124.003 49.046 124.03C50.116 124.11 50.4905 124.217 50.7848 124.351C50.7848 123.816 50.8383 123.147 50.9185 122.853C50.4905 122.933 49.6078 122.96 49.2333 122.96H44.124C43.7228 122.96 43.2145 122.96 42.9738 122.933C43.1075 123.549 43.1878 125.796 43.1878 129.46V133.473ZM61.0486 139.652C61.5034 139.893 62.9746 140.375 64.9274 140.375C68.8864 140.375 71.2939 138.154 71.2939 135.131C71.2939 132.323 69.0201 130.878 67.2546 130.53C67.2011 130.504 67.2011 130.477 67.2546 130.45C68.5654 129.942 70.0901 128.872 70.0901 126.571C70.0901 125.02 69.0469 122.559 65.3554 122.559C63.4294 122.559 62.3059 123.04 61.6639 123.174C61.7441 123.415 61.7441 124.298 61.7441 124.752C62.1454 124.244 63.1886 123.602 65.0076 123.602C67.6559 123.602 68.5119 125.448 68.5119 126.812C68.5119 129.086 66.9336 130.209 64.9274 130.209C64.6064 130.209 64.1249 130.183 63.9376 130.156C63.9644 130.397 63.8841 131.119 63.8039 131.306C64.1516 131.226 64.6599 131.199 64.9809 131.199C67.4686 131.199 69.6889 132.483 69.6889 135.372C69.6889 138.154 67.4419 139.331 65.0879 139.331C63.0281 139.331 61.6906 138.502 61.1824 137.94C61.1824 138.555 61.1289 139.358 61.0486 139.652ZM84.4822 133.5C84.509 133.5 84.5625 133.526 84.5892 133.58C85.4452 135.64 86.8897 138.983 87.2375 140.054C87.4515 140.027 87.9597 140 88.3877 140C88.6285 140 88.9495 140.027 89.2437 140.027C88.682 139.171 87.3712 136.148 86.3012 133.687C84.2147 129.032 81.9677 123.896 81.7537 123.388C81.4595 122.719 81.3792 122.559 81.2722 122.559C81.1652 122.559 81.085 122.853 80.7907 123.415L76.1897 134.891C75.3605 136.924 74.5847 138.85 73.9695 140.054C74.1567 140.027 74.6382 140 74.986 140C75.3872 140 75.4942 140 75.7082 140.027C75.9757 138.983 77.233 135.693 78.0087 133.58C78.0087 133.526 78.0355 133.5 78.089 133.5H84.4822ZM78.4635 132.483C78.3832 132.483 78.3832 132.456 78.41 132.403L81.1385 125.261L84.1612 132.403C84.188 132.456 84.1612 132.483 84.1077 132.483H78.4635ZM93.0305 133.473C93.0305 136.469 92.9503 139.278 92.87 140.054C93.0573 140.027 93.512 140 93.833 140C94.047 140 94.3948 140 94.689 140.027C94.5553 139.117 94.5285 136.415 94.5285 133.526V124.298C94.5285 123.896 94.5285 123.896 94.6088 123.87C94.796 123.789 95.6253 123.763 96.187 123.763C97.3908 123.763 98.327 123.95 99.0493 124.351C100.253 124.993 100.975 126.224 100.975 127.802C100.975 130.504 98.862 131.681 96.4813 131.761C96.5883 132.002 96.722 132.456 96.7488 132.59C100.093 132.59 102.5 130.637 102.5 127.508C102.5 126.01 101.805 124.859 101.243 124.351C100.333 123.495 99.1563 122.88 96.4813 122.88C95.224 122.88 93.9935 122.96 93.5388 122.96C93.3515 122.96 93.0305 122.96 92.8165 122.933C92.9503 123.709 93.0305 126.224 93.0305 129.46V133.473ZM113.792 133.5C113.819 133.5 113.873 133.526 113.899 133.58C114.755 135.64 116.2 138.983 116.548 140.054C116.762 140.027 117.27 140 117.698 140C117.939 140 118.26 140.027 118.554 140.027C117.992 139.171 116.681 136.148 115.611 133.687C113.525 129.032 111.278 123.896 111.064 123.388C110.77 122.719 110.689 122.559 110.582 122.559C110.475 122.559 110.395 122.853 110.101 123.415L105.5 134.891C104.671 136.924 103.895 138.85 103.28 140.054C103.467 140.027 103.948 140 104.296 140C104.697 140 104.804 140 105.018 140.027C105.286 138.983 106.543 135.693 107.319 133.58C107.319 133.526 107.346 133.5 107.399 133.5H113.792ZM107.774 132.483C107.693 132.483 107.693 132.456 107.72 132.403L110.449 125.261L113.471 132.403C113.498 132.456 113.471 132.483 113.418 132.483H107.774ZM121.288 139.652C121.743 139.893 123.214 140.375 125.167 140.375C129.126 140.375 131.534 138.154 131.534 135.131C131.534 132.323 129.26 130.878 127.494 130.53C127.441 130.504 127.441 130.477 127.494 130.45C128.805 129.942 130.33 128.872 130.33 126.571C130.33 125.02 129.287 122.559 125.595 122.559C123.669 122.559 122.546 123.04 121.904 123.174C121.984 123.415 121.984 124.298 121.984 124.752C122.385 124.244 123.428 123.602 125.247 123.602C127.896 123.602 128.752 125.448 128.752 126.812C128.752 129.086 127.173 130.209 125.167 130.209C124.846 130.209 124.365 130.183 124.177 130.156C124.204 130.397 124.124 131.119 124.044 131.306C124.391 131.226 124.9 131.199 125.221 131.199C127.708 131.199 129.929 132.483 129.929 135.372C129.929 138.154 127.682 139.331 125.328 139.331C123.268 139.331 121.93 138.502 121.422 137.94C121.422 138.555 121.369 139.358 121.288 139.652Z" fill="#F7F7F2"/>
</svg>
