<svg width="34" height="33" viewBox="0 0 34 33" fill="none" xmlns="http://www.w3.org/2000/svg">
    <path d="M25.7511 8.16021C25.9064 8.16021 26.0322 8.03451 26.0322 7.87918C26.0322 7.72385 25.9064 7.59766 25.7511 7.59766C25.5958 7.59766 25.4698 7.72385 25.4698 7.87918C25.4698 8.03451 25.5958 8.16021 25.7511 8.16021Z" stroke="#F7F7F2" stroke-linejoin="round"/>
    <path opacity="0.75" d="M29.5196 0.614258H4.70881C2.81631 0.614258 1.28217 2.14798 1.28217 4.04034V28.8492C1.28217 30.7415 2.81631 32.2757 4.70881 32.2757H29.5196C31.4121 32.2757 32.9462 30.7415 32.9462 28.8492V4.04034C32.9462 2.14798 31.4121 0.614258 29.5196 0.614258Z" stroke="#F7F7F2" stroke-linejoin="round"/>
    <path opacity="0.75" d="M17.1092 23.5643C21.0385 23.5643 24.2238 20.3791 24.2238 16.4501C24.2238 12.5211 21.0385 9.33594 17.1092 9.33594C13.1799 9.33594 9.99457 12.5211 9.99457 16.4501C9.99457 20.3791 13.1799 23.5643 17.1092 23.5643Z" stroke="#F7F7F2" stroke-linejoin="round"/>
</svg>
