<svg width="44" height="44" viewBox="0 0 44 44" fill="none" xmlns="http://www.w3.org/2000/svg">
    <path d="M33.556 11.3916C33.7601 11.3916 33.9254 11.2265 33.9254 11.0223C33.9254 10.8182 33.7601 10.6523 33.556 10.6523C33.3518 10.6523 33.1863 10.8182 33.1863 11.0223C33.1863 11.2265 33.3518 11.3916 33.556 11.3916Z" stroke="#32533A" stroke-linejoin="round"/>
    <path d="M38.5085 1.47461H5.90233C3.41521 1.47461 1.39905 3.49022 1.39905 5.97715V38.5808C1.39905 41.0677 3.41521 43.0839 5.90233 43.0839H38.5085C40.9956 43.0839 43.0117 41.0677 43.0117 38.5808V5.97715C43.0117 3.49022 40.9956 1.47461 38.5085 1.47461Z" stroke="#32533A" stroke-linejoin="round"/>
    <path d="M22.1989 31.6353C27.3627 31.6353 31.5489 27.4494 31.5489 22.2859C31.5489 17.1224 27.3627 12.9365 22.1989 12.9365C17.035 12.9365 12.8489 17.1224 12.8489 22.2859C12.8489 27.4494 17.035 31.6353 22.1989 31.6353Z" stroke="#32533A" stroke-linejoin="round"/>
</svg>
