<svg width="128" height="128" viewBox="0 0 128 128" fill="none" xmlns="http://www.w3.org/2000/svg">
<g clip-path="url(#clip0_10_95)">
<mask id="mask0_10_95" style="mask-type:luminance" maskUnits="userSpaceOnUse" x="0" y="0" width="128" height="128">
<path d="M0 128L128 128L128 0L0 0L0 128Z" fill="white"/>
</mask>
<g mask="url(#mask0_10_95)">
<path d="M-0.000244141 120.519C-0.000244368 122.599 0.770845 124.143 2.42317 125.217C3.35949 125.418 13.1632 125.485 47.0359 125.485C72.9775 125.485 89.9413 125.485 92.089 125.284C93.7967 124.546 95.0634 122.197 94.8981 120.117C94.7327 118.304 93.7967 116.761 92.3647 115.888L91.7589 115.485H3.08409L2.47823 115.821C0.770835 116.895 -0.000243898 118.304 -0.000244133 120.452L-0.000244141 120.519Z" fill="#F7F7F2"/>
<path d="M2.75328 67.2734C3.85483 67.5328 16.1922 67.5328 63.2832 67.5328C100.846 67.5328 122.712 67.4681 124.639 67.3382C126.071 66.9485 127.724 65.0006 127.945 63.442C128.109 62.1436 127.945 60.9746 127.283 60.0006C126.513 58.7018 125.521 57.9225 124.309 57.7278C122.437 57.5328 88.399 57.5328 63.008 57.5328C15.8066 57.598 3.74466 57.6627 2.47789 57.9876C1.7068 58.3773 0.935726 59.2213 0.329875 60.3252C-0.000590063 60.9746 -0.0556641 61.0393 -0.0556641 62.5328C-0.0556646 64.0267 -0.0556678 64.0914 0.329874 64.7409C0.880648 65.8447 1.76189 66.6888 2.6982 67.2083L2.75328 67.2734Z" fill="#F7F7F2"/>
<path d="M3.08433 9.81695C5.89329 10.2142 61.4666 10.148 65.5423 9.75073C67.3044 8.95622 68.3514 7.30093 68.4612 5.24837C68.5162 3.1296 67.5247 1.34188 65.7076 0.481131C64.9364 0.0838606 61.081 0.0838644 34.3132 0.0838623H29.3012C5.17728 0.0838606 2.47848 0.0838573 1.65232 1.07703C0.275386 2.5999 1.90933e-07 3.39444 0 5.11593C-1.46667e-07 6.44016 0.110153 6.83744 0.275385 7.1685C0.826164 8.36033 2.25817 9.68456 3.02926 9.88318L3.08433 9.81695Z" fill="#F7F7F2"/>
</g>
</g>
<defs>
<clipPath id="clip0_10_95">
<rect width="128" height="128" fill="white"/>
</clipPath>
</defs>
</svg>
