<svg width="298" height="216" viewBox="0 0 298 216" fill="none" xmlns="http://www.w3.org/2000/svg">
<path opacity="0.5" d="M189.887 172.361C225.318 172.361 254.04 143.642 254.04 108.214C254.04 72.7863 225.318 44.0664 189.887 44.0664C154.457 44.0664 125.735 72.7863 125.735 108.214C125.735 143.642 154.457 172.361 189.887 172.361Z" fill="#72927A"/>
<path opacity="0.63" d="M189.887 215.418C249.099 215.418 297.099 167.421 297.099 108.214C297.099 49.0069 249.099 1.01025 189.887 1.01025C130.676 1.01025 82.6758 49.0069 82.6758 108.214C82.6758 167.421 130.676 215.418 189.887 215.418Z" stroke="#A7B9A7" stroke-width="0.5" stroke-miterlimit="10"/>
<path d="M4.79408 83.9567C4.74062 83.93 4.71389 83.8765 4.74062 83.7963C6.45134 78.878 8.56301 72.837 10.1134 68.2929C10.2203 67.9989 10.3005 67.8652 10.3272 67.8652C10.4074 67.8652 10.4876 67.9989 10.5678 68.2662C11.9577 71.9015 15.8603 82.0054 16.5018 83.7963C16.5286 83.8765 16.5018 83.93 16.4484 83.9567C16.1811 84.0102 4.95446 84.0102 4.79408 83.9567ZM1.4261 87.6989C1.63994 86.7366 1.85378 85.908 2.04089 85.5605C2.17454 85.3199 2.38838 85.2397 2.62895 85.213C3.13682 85.1328 4.58024 85.1328 5.86328 85.1328H16.9295C17.8651 85.1328 18.9877 85.1595 19.3887 85.2397C19.6827 85.3199 19.7896 85.4268 19.8698 85.614C20.1906 86.1486 20.3242 87.0841 20.4579 87.8058L21.1796 87.6722C21.1796 85.6674 21.3934 84.3309 21.5003 83.7963C20.7786 83.8765 19.4421 83.93 18.4798 83.93C18.3729 83.93 18.2927 83.8498 18.2125 83.7161C15.6732 77.5415 13.4546 71.6876 10.9687 65.3526C10.7816 64.8715 10.6212 64.6309 10.541 64.6309C10.4074 64.6309 10.3807 64.7646 10.0866 65.3793L3.37739 83.7429C3.2972 83.93 3.21701 83.9567 3.0299 83.9567C1.77359 83.9567 0.971693 83.8498 0.650933 83.7696C0.731123 84.5982 0.677663 86.5228 0.677663 87.8058L1.4261 87.6989ZM25.0982 78.6107C25.0982 81.5777 25.0448 84.5448 24.9646 85.1863C25.1517 85.1595 25.6328 85.1328 25.9803 85.1328C26.2209 85.1328 26.5951 85.1328 26.7822 85.1595C26.6486 84.5448 26.5951 81.5777 26.5951 78.6107V74.6012C26.5951 71.3936 26.6753 68.881 26.7555 68.0256C26.6218 68.1058 26.1674 68.1058 25.6596 68.1058C25.4725 68.1058 25.0982 68.1058 24.9111 68.0791C25.0448 68.5869 25.0982 71.3669 25.0982 74.6012V78.6107ZM31.1476 84.7853C31.602 85.0259 33.0721 85.507 35.0234 85.507C38.9795 85.507 41.3852 83.2884 41.3852 80.268C41.3852 77.4613 39.1131 76.0179 37.3489 75.6704C37.2955 75.6437 37.2955 75.6169 37.3489 75.5902C38.6587 75.0823 40.1823 74.0131 40.1823 71.7144C40.1823 70.164 39.1398 67.7049 35.4511 67.7049C33.5265 67.7049 32.4039 68.186 31.7624 68.3196C31.8425 68.5602 31.8425 69.4423 31.8425 69.8967C32.2435 69.3888 33.286 68.7473 35.1036 68.7473C37.7499 68.7473 38.6052 70.5917 38.6052 71.9549C38.6052 74.227 37.0282 75.3496 35.0234 75.3496C34.7027 75.3496 34.2215 75.3229 34.0344 75.2962C34.0611 75.5367 33.9809 76.2585 33.9008 76.4456C34.2482 76.3654 34.7561 76.3386 35.0769 76.3386C37.5628 76.3386 39.7814 77.6217 39.7814 80.5085C39.7814 83.2884 37.536 84.4646 35.1838 84.4646C33.1256 84.4646 31.7891 83.6359 31.2812 83.0746C31.2812 83.6894 31.2278 84.4913 31.1476 84.7853ZM46.1905 78.6107C46.1905 81.5777 46.1103 84.3576 46.0301 85.1863C46.3241 85.1595 46.7786 85.1328 47.0993 85.1328C47.3399 85.1328 47.6606 85.1328 47.8478 85.1595C47.7676 84.3042 47.6874 81.6045 47.6874 78.6107V76.2852C47.6874 76.2317 47.7141 76.205 47.7408 76.205H58.4328C58.4596 76.205 58.4863 76.2317 58.4863 76.2852V78.6107C58.4863 81.6312 58.4061 84.3309 58.3259 85.1863C58.513 85.1595 59.0744 85.1328 59.3684 85.1328C59.5822 85.1328 59.9297 85.1328 60.1703 85.1595C60.0366 84.3309 59.9832 81.6045 59.9832 78.6107V74.6012C59.9832 71.3936 60.0366 68.8275 60.1703 68.0256C59.8763 68.1058 59.4218 68.1058 59.1278 68.1058C58.8338 68.1058 58.6199 68.1058 58.3259 68.0791C58.4061 68.8542 58.4863 71.2599 58.4863 74.4943V74.9487C58.4863 75.0289 58.4596 75.0556 58.4061 75.0556H47.7408C47.7141 75.0556 47.6874 75.0289 47.6874 74.9487V74.4943C47.6874 71.1798 47.7408 68.8542 47.821 68.0256C47.527 68.1058 47.0993 68.1058 46.8053 68.1058C46.5647 68.1058 46.2172 68.1058 45.9767 68.0791C46.1638 68.8542 46.1905 71.3669 46.1905 74.6012V78.6107ZM74.4545 78.6374C74.4813 78.6374 74.5347 78.6642 74.5615 78.7176C75.4168 80.7758 76.8602 84.1171 77.2077 85.1863C77.4216 85.1595 77.9294 85.1328 78.3571 85.1328C78.5977 85.1328 78.9185 85.1595 79.2125 85.1595C78.6512 84.3042 77.3414 81.2837 76.2722 78.8245C74.1872 74.1735 71.9419 69.0414 71.7281 68.5335C71.4341 67.8652 71.3539 67.7049 71.2469 67.7049C71.14 67.7049 71.0598 67.9989 70.7658 68.5602L66.1682 80.0274C65.3396 82.0589 64.5644 83.9834 63.9497 85.1863C64.1368 85.1595 64.6179 85.1328 64.9654 85.1328C65.3663 85.1328 65.4733 85.1328 65.6871 85.1595C65.9544 84.1171 67.2107 80.8293 67.9859 78.7176C67.9859 78.6642 68.0126 78.6374 68.0661 78.6374H74.4545ZM68.4403 77.6217C68.3601 77.6217 68.3601 77.595 68.3868 77.5415L71.1133 70.4046L74.1338 77.5415C74.1605 77.595 74.1338 77.6217 74.0803 77.6217H68.4403ZM77.984 69.469C78.5453 69.2819 79.5076 69.175 81.1114 69.1483C82.6884 69.1483 83.2498 69.1215 84.4259 69.1215V78.6107C84.4259 81.5777 84.319 84.518 84.2388 85.1863C84.4526 85.1595 84.9605 85.1328 85.3614 85.1328C85.5485 85.1328 85.8693 85.1328 86.0831 85.1595C86.003 84.4111 85.9228 81.4708 85.9228 78.477V69.1215C87.6335 69.1215 88.7027 69.1215 89.7452 69.2017C91.3757 69.2819 91.9637 69.3621 92.3112 69.576C92.338 69.0681 92.4182 68.3196 92.5251 67.9187C92.1241 68.0523 90.4134 68.1058 89.1304 68.1058H81.5925C79.6412 68.1058 78.8126 68.0256 78.3047 67.9187C78.3047 68.3196 78.0641 69.175 77.984 69.469ZM97.8602 68.0256C97.7266 68.1058 97.1652 68.1058 96.8712 68.1058C96.6841 68.1058 96.3633 68.1058 96.0693 68.0791C96.2831 69.7631 96.2831 80.7491 96.2831 84.8388C96.2831 85.4536 96.3633 85.5338 96.4435 85.5338C96.5504 85.5338 96.7643 85.4001 97.1652 84.8922C99.2234 82.7271 108.071 72.1153 109.568 70.6184C109.568 74.922 109.434 83.0479 109.327 85.1863C109.514 85.1595 109.809 85.1328 110.103 85.1328C110.397 85.1328 110.771 85.1595 111.065 85.1863C110.985 83.823 110.878 78.5572 110.878 74.3874C110.878 72.5163 110.904 70.2977 110.904 69.0414C110.904 67.8385 110.878 67.7049 110.744 67.7049C110.557 67.7049 110.263 68.0791 109.114 69.2819C107.43 71.0728 99.865 80.2412 97.5929 82.7271C97.5929 77.6751 97.7533 69.7631 97.8602 68.0256ZM126.103 85.507C128.081 85.507 130.166 85.1061 131.021 84.6784C131.101 84.2775 131.155 83.5557 131.342 83.1281C130.246 83.9567 128.375 84.3576 126.237 84.3576C119.848 84.3576 117.523 79.8403 117.523 76.1783C117.523 74.2537 118.004 72.2757 119.608 70.6986C120.543 69.8433 122.093 68.7473 125.328 68.7473C128.348 68.7473 130.38 69.6294 131.235 70.565C131.262 69.9234 131.369 69.2017 131.502 68.8008C130.567 68.5068 128.696 67.7049 125.408 67.7049C121.906 67.7049 119.581 68.9077 118.298 70.2442C116.24 72.249 115.865 74.6814 115.865 76.3921C115.865 78.3167 116.48 81.0699 118.699 83.0746C120.49 84.6517 122.762 85.507 126.103 85.507ZM137.405 76.4456C137.405 76.4188 137.431 76.3654 137.485 76.3386C137.672 76.3386 138.287 76.3119 138.714 76.3119C140.291 76.3119 141.601 76.5792 142.563 77.2207C143.82 78.0494 144.247 79.0651 144.247 80.562C144.247 83.1815 142.323 84.3576 140.051 84.3576C138.768 84.3576 137.886 84.1705 137.538 83.93C137.458 83.8498 137.405 83.1281 137.405 78.6642V76.4456ZM135.908 78.6107C135.908 82.9142 135.854 84.0903 135.774 85.1595C135.908 85.1328 136.228 85.1328 136.522 85.1328C137.164 85.1328 137.805 85.3199 139.89 85.3199C143.713 85.3199 145.824 82.9944 145.824 80.4016C145.824 78.6107 145.103 77.1673 143.392 76.2317C142.43 75.6704 140.933 75.3496 139.008 75.3496H137.485C137.431 75.3496 137.405 75.3229 137.405 75.2427C137.405 72.0351 137.485 68.8542 137.565 68.0256C137.431 68.1058 136.87 68.1058 136.549 68.1058C136.335 68.1058 135.854 68.1058 135.721 68.0791C135.854 68.5869 135.908 71.4203 135.908 74.7081V78.6107Z" fill="#32533A"/>
<path d="M93.4489 108.67C93.4489 108.643 93.4757 108.59 93.5291 108.563C93.7162 108.563 94.331 108.537 94.7587 108.537C96.3358 108.537 97.6456 108.804 98.6078 109.445C99.8641 110.274 100.292 111.29 100.292 112.787C100.292 115.406 98.1802 116.582 96.0952 116.582C94.8122 116.582 93.9301 116.395 93.5826 116.155C93.5024 116.074 93.4489 115.353 93.4489 110.889V108.67ZM93.5291 101.4C93.5291 101.346 93.5559 101.319 93.6361 101.319C95.3468 101.319 96.9238 101.293 97.8059 101.373C99.4097 101.453 100.025 101.56 100.372 101.747C100.399 101.239 100.479 100.544 100.586 100.143C100.185 100.277 98.4742 100.33 97.1911 100.33H92.5936C92.3797 100.33 91.8986 100.33 91.765 100.304C91.7917 100.411 91.7917 100.651 91.8719 101.052C91.9521 102.228 91.9521 104.474 91.9521 106.933V110.835C91.9521 115.139 91.8986 116.315 91.8184 117.384C91.9521 117.357 92.2194 117.357 92.5669 117.357C93.2084 117.357 93.8499 117.545 95.9348 117.545C99.7572 117.545 101.869 115.272 101.869 112.626C101.869 110.835 101.147 109.392 99.4365 108.456C98.4742 107.895 96.9773 107.574 95.0527 107.574H93.5291C93.4757 107.574 93.4489 107.548 93.4489 107.467C93.4489 105.008 93.4489 102.549 93.5291 101.4ZM106.335 110.835C106.335 113.802 106.282 116.769 106.201 117.411C106.389 117.384 106.87 117.357 107.217 117.357C107.458 117.357 107.832 117.357 108.019 117.384C107.885 116.769 107.832 113.802 107.832 110.835V106.826C107.832 103.618 107.912 101.106 107.992 100.25C107.859 100.33 107.404 100.33 106.896 100.33C106.709 100.33 106.335 100.33 106.148 100.304C106.282 100.812 106.335 103.591 106.335 106.826V110.835ZM122.439 110.915C123.294 113 124.711 116.395 125.058 117.411C125.272 117.384 125.78 117.357 126.208 117.357C126.448 117.357 126.769 117.384 127.063 117.384C126.502 116.529 125.192 113.508 124.123 111.049C122.118 106.398 119.846 101.266 119.632 100.758C119.338 100.09 119.258 99.9027 119.151 99.9027C119.044 99.9027 118.964 100.197 118.67 100.758L114.019 112.252C113.19 114.283 112.415 116.208 111.8 117.411C111.987 117.384 112.468 117.357 112.816 117.357C113.217 117.357 113.35 117.357 113.564 117.384C113.832 116.342 115.034 113 115.89 110.809L118.991 102.763L122.439 110.915ZM132.317 108.67C132.317 108.643 132.344 108.59 132.397 108.563C132.584 108.563 133.199 108.537 133.627 108.537C135.204 108.537 136.514 108.804 137.476 109.445C138.732 110.274 139.16 111.29 139.16 112.787C139.16 115.406 137.235 116.582 134.963 116.582C133.68 116.582 132.798 116.395 132.451 116.155C132.371 116.074 132.317 115.353 132.317 110.889V108.67ZM130.82 110.835C130.82 115.139 130.767 116.315 130.687 117.384C130.82 117.357 131.141 117.357 131.435 117.357C132.077 117.357 132.718 117.545 134.803 117.545C138.625 117.545 140.737 115.219 140.737 112.626C140.737 110.835 140.015 109.392 138.305 108.456C137.342 107.895 135.845 107.574 133.921 107.574H132.397C132.344 107.574 132.317 107.548 132.317 107.467C132.317 104.26 132.397 101.079 132.477 100.25C132.344 100.33 131.782 100.33 131.462 100.33C131.248 100.33 130.767 100.33 130.633 100.304C130.767 100.812 130.82 103.645 130.82 106.933V110.835ZM145.334 110.835C145.334 114.07 145.28 116.636 145.173 117.411C145.36 117.384 146.055 117.357 146.296 117.357H164.74C165.248 117.357 165.381 117.357 165.675 117.384C165.542 116.475 165.515 113.829 165.515 110.889V106.826C165.515 103.832 165.595 101.132 165.675 100.25C165.408 100.304 165.06 100.33 164.633 100.33C164.419 100.33 164.045 100.33 163.858 100.304C163.938 101.159 164.045 102.977 164.045 106.826V110.648C164.045 113.214 164.018 115.166 163.991 116.155C163.991 116.235 163.965 116.288 163.884 116.288H156.293C156.213 116.288 156.159 116.235 156.159 116.155C156.159 115.005 156.133 112.466 156.133 110.835V106.826C156.133 103.618 156.213 101.106 156.293 100.25C156.106 100.33 155.678 100.33 155.17 100.33C154.983 100.33 154.689 100.33 154.449 100.304C154.582 100.812 154.663 103.591 154.663 106.826V110.835C154.663 112.599 154.609 115.005 154.609 116.128C154.609 116.235 154.556 116.288 154.449 116.288H146.991C146.911 116.288 146.884 116.261 146.884 116.208C146.884 115.54 146.831 114.07 146.831 110.648V106.826C146.831 103.859 146.831 101.106 146.964 100.25C146.777 100.33 146.269 100.33 145.975 100.33C145.735 100.33 145.28 100.33 145.147 100.304C145.28 101.213 145.334 102.816 145.334 106.826V110.835ZM172.456 110.835C172.456 113.963 172.376 116.609 172.296 117.384C172.536 117.357 172.964 117.357 173.472 117.357C174.193 117.357 175.904 117.491 179.245 117.491C180.101 117.491 180.288 117.464 180.368 117.438C180.448 117.037 180.582 116.422 180.769 116.021C180.181 116.315 179.272 116.449 176.92 116.449C175.877 116.449 175.102 116.368 174.594 116.342C174.38 116.315 174.22 116.288 174.086 116.208C174.006 116.128 173.953 115.433 173.953 110.728V108.884C173.953 108.831 173.98 108.804 174.006 108.804C174.354 108.804 177.294 108.804 178.123 108.884C179.005 108.964 179.326 109.044 179.62 109.151C179.62 108.804 179.7 108.002 179.78 107.654C179.593 107.735 179.005 107.761 177.855 107.788C177.214 107.788 174.22 107.815 174.006 107.815C173.98 107.815 173.953 107.761 173.953 107.681V101.4C173.953 101.346 173.98 101.319 174.033 101.319C176.305 101.319 177.642 101.373 178.31 101.4C179.379 101.48 179.753 101.587 180.047 101.72C180.047 101.186 180.101 100.518 180.181 100.223C179.753 100.304 178.871 100.33 178.497 100.33H173.391C172.991 100.33 172.483 100.33 172.242 100.304C172.376 100.918 172.456 103.164 172.456 106.826V110.835Z" fill="#32533A"/>
</svg>
