<svg width="510" height="331" viewBox="0 0 510 331" fill="none" xmlns="http://www.w3.org/2000/svg">
<path d="M31.1233 138.615C26.0243 151.725 21.8965 165.193 18.7732 178.908C31.1735 167.946 39.7352 153.667 48.1863 139.63" stroke="#305238" stroke-width="0.5" stroke-miterlimit="10"/>
<path d="M68.5454 330.254C57.8433 272.838 80.6041 216.338 100.983 163.816C110.952 138.113 122.086 111.636 127.191 84.4356C131.341 62.0684 120.388 39.6711 94.0294 46.9057C68.1133 54.0098 52.638 87.4299 41.7751 109.345" stroke="#32533A" stroke-width="0.5" stroke-miterlimit="10"/>
<path d="M64.2344 110.49C75.0671 98.4326 89.2963 81.3508 109.223 92.7555C126.306 104.14 126.306 124.065 140.536 138.294C154.765 152.522 174.702 161.063 194.629 158.219C265.795 143.991 331.294 121.212 401.887 106.039" stroke="#32533A" stroke-width="0.5" stroke-miterlimit="10"/>
<path opacity="0.5" d="M401.887 172.377C437.318 172.377 466.04 143.657 466.04 108.23C466.04 72.8019 437.318 44.0822 401.887 44.0822C366.457 44.0822 337.735 72.8019 337.735 108.23C337.735 143.657 366.457 172.377 401.887 172.377Z" fill="#72927A"/>
<path d="M401.887 215.433C461.099 215.433 509.099 167.436 509.099 108.229C509.099 49.0224 461.099 1.02576 401.887 1.02576C342.676 1.02576 294.676 49.0224 294.676 108.229C294.676 167.436 342.676 215.433 401.887 215.433Z" stroke="#DCE0D4" stroke-width="0.5" stroke-miterlimit="10"/>
<path d="M4.71547 130.323C4.66201 130.296 4.63528 130.243 4.66201 130.163C6.37273 125.244 8.4844 119.203 10.0347 114.659C10.1417 114.365 10.2219 114.231 10.2486 114.231C10.3288 114.231 10.409 114.365 10.4892 114.632C11.8791 118.268 15.7817 128.372 16.4232 130.163C16.4499 130.243 16.4232 130.296 16.3698 130.323C16.1024 130.376 4.87585 130.376 4.71547 130.323ZM1.34749 134.065C1.56133 133.103 1.77517 132.274 1.96228 131.927C2.09593 131.686 2.30977 131.606 2.55034 131.579C3.05821 131.499 4.50163 131.499 5.78467 131.499H16.8509C17.7864 131.499 18.9091 131.526 19.3101 131.606C19.6041 131.686 19.711 131.793 19.7912 131.98C20.112 132.515 20.2456 133.45 20.3793 134.172L21.101 134.038C21.101 132.034 21.3148 130.697 21.4217 130.163C20.7 130.243 19.3635 130.296 18.4012 130.296C18.2943 130.296 18.2141 130.216 18.1339 130.082C15.5946 123.908 13.376 118.054 10.8901 111.719C10.703 111.238 10.5426 110.997 10.4624 110.997C10.3288 110.997 10.302 111.131 10.008 111.746L3.29878 130.109C3.21859 130.296 3.1384 130.323 2.95129 130.323C1.69498 130.323 0.89308 130.216 0.57232 130.136C0.65251 130.964 0.59905 132.889 0.59905 134.172L1.34749 134.065ZM33.8372 125.004C33.8639 125.004 33.9174 125.03 33.9441 125.084C34.7995 127.142 36.2429 130.483 36.5904 131.552C36.8042 131.526 37.3121 131.499 37.7398 131.499C37.9803 131.499 38.3011 131.526 38.5951 131.526C38.0338 130.67 36.724 127.65 35.6548 125.191C33.5699 120.54 31.3246 115.408 31.1107 114.9C30.8167 114.231 30.7365 114.071 30.6296 114.071C30.5227 114.071 30.4425 114.365 30.1484 114.926L25.5509 126.394C24.7222 128.425 23.9471 130.35 23.3323 131.552C23.5194 131.526 24.0005 131.499 24.348 131.499C24.749 131.499 24.8559 131.499 25.0697 131.526C25.337 130.483 26.5933 127.195 27.3685 125.084C27.3685 125.03 27.3952 125.004 27.4487 125.004H33.8372ZM27.8229 123.988C27.7427 123.988 27.7427 123.961 27.7695 123.908L30.4959 116.771L33.5164 123.908C33.5431 123.961 33.5164 123.988 33.463 123.988H27.8229ZM51.408 125.057C52.2633 127.142 53.68 130.537 54.0275 131.552C54.2414 131.526 54.7492 131.499 55.1769 131.499C55.4175 131.499 55.7382 131.526 56.0323 131.526C55.4709 130.67 54.1612 127.65 53.092 125.191C51.0872 120.54 48.8152 115.408 48.6013 114.9C48.3073 114.231 48.2271 114.044 48.1202 114.044C48.0133 114.044 47.9331 114.338 47.639 114.9L42.988 126.394C42.1594 128.425 41.3842 130.35 40.7694 131.552C40.9565 131.526 41.4377 131.499 41.7852 131.499C42.1861 131.499 42.3198 131.499 42.5336 131.526C42.8009 130.483 44.0038 127.142 44.8591 124.95L47.9598 116.904L51.408 125.057ZM59.7895 124.977C59.7895 127.944 59.736 130.911 59.6559 131.552C59.843 131.526 60.3241 131.499 60.6716 131.499C60.9122 131.499 61.2864 131.499 61.4735 131.526C61.3398 130.911 61.2864 127.944 61.2864 124.977V120.967C61.2864 117.76 61.3666 115.247 61.4468 114.392C61.3131 114.472 60.8587 114.472 60.3508 114.472C60.1637 114.472 59.7895 114.472 59.6024 114.445C59.736 114.953 59.7895 117.733 59.7895 120.967V124.977Z" fill="#72927A"/>
</svg>
