<?xml version="1.0" encoding="UTF-8"?>
<svg xmlns="http://www.w3.org/2000/svg" xmlns:xlink="http://www.w3.org/1999/xlink" width="31px" height="32px" viewBox="0 0 31 31" version="1.1">
<g id="surface1">
<path style="fill:none;stroke-width:1;stroke-linecap:round;stroke-linejoin:round;stroke:rgb(19.607843%,32.54902%,22.745098%);stroke-opacity:1;stroke-miterlimit:4;" d="M 16.387727 14.249496 C 19.959677 14.249496 22.853831 11.220514 22.853831 7.484627 C 22.853831 3.74874 19.959677 0.719758 16.387727 0.719758 C 12.811618 0.719758 9.917465 3.74874 9.917465 7.484627 C 9.917465 11.220514 12.811618 14.249496 16.387727 14.249496 Z M 16.387727 14.249496 " transform="matrix(0.939394,0,0,0.911765,0,0)"/>
<path style="fill:none;stroke-width:1;stroke-linecap:round;stroke-linejoin:round;stroke:rgb(19.607843%,32.54902%,22.745098%);stroke-opacity:1;stroke-miterlimit:4;" d="M 0.802545 32.629032 C 0.802545 32.629032 3.210181 24.021925 5.37248 22.278226 C 9.746976 18.769405 22.791457 19.176411 27.444556 22.278226 C 29.731603 23.81628 32.002016 32.629032 32.002016 32.629032 Z M 0.802545 32.629032 " transform="matrix(0.939394,0,0,0.911765,0,0)"/>
</g>
</svg>
