<svg width="54" height="54" viewBox="0 0 54 54" fill="none" xmlns="http://www.w3.org/2000/svg">
<path d="M27 19.125C27.8951 19.125 28.7535 19.4806 29.3865 20.1135C30.0194 20.7464 30.375 21.6049 30.375 22.5M27 10.125C30.2821 10.125 33.4297 11.4288 35.7504 13.7496C38.0712 16.0703 39.375 19.2179 39.375 22.5M27 14.625C29.0886 14.625 31.0916 15.4547 32.5685 16.9315C34.0453 18.4084 34.875 20.4114 34.875 22.5M19.125 30.375C22.05 33.3 28.5075 37.125 31.5 37.125C32.8127 37.1385 34.0897 36.698 35.1148 35.8779C36.1399 35.0578 36.8501 33.9086 37.125 32.625V30.375C37.125 30.375 34.3575 29.025 32.625 28.125C30.8925 27.225 28.125 30.375 28.125 30.375C26.0193 29.689 24.0962 28.5352 22.5 27C20.9648 25.4038 19.811 23.4807 19.125 21.375C19.125 21.375 22.275 18.6075 21.375 16.875C20.475 15.1425 19.125 12.375 19.125 12.375H16.875C15.5913 12.6499 14.4422 13.3601 13.6221 14.3852C12.802 15.4103 12.3615 16.6873 12.375 18C12.375 20.9925 16.2 27.45 19.125 30.375Z" stroke="#32533A" stroke-linecap="round" stroke-linejoin="round"/>
<path d="M27 3.375C14.7375 3.375 3.375 5.355 3.375 23.625C3.375 35.325 8.055 40.3425 14.625 42.435V48.3075C14.575 48.8015 14.6899 49.2982 14.9517 49.7202C15.2134 50.1421 15.6074 50.4656 16.0723 50.6402C16.5371 50.8149 17.0466 50.8308 17.5215 50.6856C17.9963 50.5404 18.4098 50.2422 18.6975 49.8375L23.9625 43.83H27C39.2625 43.83 50.625 41.8725 50.625 23.58C50.625 5.2875 39.2625 3.375 27 3.375Z" stroke="#32533A" stroke-linecap="round" stroke-linejoin="round"/>
</svg>
